<svg width="40" height="40" viewBox="0 0 40 40" fill="none" xmlns="http://www.w3.org/2000/svg">
<path d="M40 20C40 31.0457 33.1707 40 20 40C6.82927 40 0 31.0457 0 20C0 8.9543 6.58537 0 20 0C33.4146 0 40 8.9543 40 20Z" fill="#F3F5FA"/>
<path d="M20 10.625C18.934 10.625 17.8681 10.7475 16.8234 10.9926C13.9302 11.6712 11.6712 13.9302 10.9926 16.8234C10.5025 18.9128 10.5025 21.0872 10.9926 23.1766C11.6712 26.0698 13.9302 28.3288 16.8234 29.0074C18.9128 29.4975 21.0872 29.4975 23.1766 29.0074C26.0698 28.3288 28.3288 26.0698 29.0074 23.1766C29.2525 22.1319 29.375 21.0659 29.375 20" stroke="#1B3ED7" stroke-width="1.5" stroke-linecap="round"/>
<path d="M25.2083 10.625H29.375M29.375 10.625V15.4861M29.375 10.625L23.125 17.9167" stroke="#1B3ED7" stroke-width="1.25" stroke-linecap="round" stroke-linejoin="round"/>
</svg>
