<svg width="40" height="40" viewBox="0 0 40 40" fill="none" xmlns="http://www.w3.org/2000/svg">
<path d="M40 20C40 31.0457 33.1707 40 20 40C6.82927 40 0 31.0457 0 20C0 8.9543 6.58537 0 20 0C33.4146 0 40 8.9543 40 20Z" fill="#F3F5FA"/>
<path d="M15.9064 10.625V13.2435M24.0937 10.625V13.2435M11.493 23.3838C11.0302 21.3643 11.0302 19.2625 11.493 17.2429C12.134 14.4465 14.2675 12.263 16.9999 11.6071C18.9732 11.1334 21.0269 11.1334 23.0002 11.6071C25.7326 12.263 27.8661 14.4465 28.5071 17.243C28.9699 19.2625 28.9699 21.3643 28.5071 23.3838C27.8661 26.1803 25.7326 28.3638 23.0002 29.0197C21.0269 29.4934 18.9732 29.4934 16.9999 29.0197C14.2675 28.3638 12.134 26.1803 11.493 23.3838Z" stroke="#1B3ED7" stroke-width="1.5" stroke-linecap="round"/>
<path d="M17.9166 20.4167L19.4318 22.0833L22.0833 18.9583" stroke="#1B3ED7" stroke-width="1.25" stroke-linecap="round" stroke-linejoin="round"/>
</svg>
