<svg width="40" height="40" viewBox="0 0 40 40" fill="none" xmlns="http://www.w3.org/2000/svg">
<path d="M40 20C40 31.0457 33.1707 40 20 40C6.82927 40 0 31.0457 0 20C0 8.9543 6.58537 0 20 0C33.4146 0 40 8.9543 40 20Z" fill="#F3F5FA"/>
<path d="M10.9926 16.8234C11.6712 13.9302 13.9302 11.6712 16.8234 10.9926C18.9128 10.5025 21.0872 10.5025 23.1766 10.9926C26.0698 11.6712 28.3288 13.9302 29.0074 16.8234C29.4975 18.9128 29.4975 21.0872 29.0074 23.1766C28.3288 26.0698 26.0698 28.3288 23.1766 29.0074C21.0872 29.4975 18.9128 29.4975 16.8234 29.0074C13.9302 28.3288 11.6712 26.0698 10.9926 23.1766C10.5025 21.0872 10.5025 18.9128 10.9926 16.8234Z" stroke="#1B3ED7" stroke-width="1.5"/>
<path d="M22.6042 20H17.3959M20 22.6042L20 17.3958" stroke="#1B3ED7" stroke-width="1.5" stroke-linecap="round"/>
</svg>
