<svg width="40" height="40" viewBox="0 0 40 40" fill="none" xmlns="http://www.w3.org/2000/svg">
<path d="M40 20C40 31.0457 33.1707 40 20 40C6.82927 40 0 31.0457 0 20C0 8.9543 6.58537 0 20 0C33.4146 0 40 8.9543 40 20Z" fill="#F3F5FA"/>
<path d="M10.5056 16.7174C11.2063 13.8957 13.4438 11.7139 16.2818 11.085L16.7546 10.9803C18.8923 10.5066 21.1077 10.5066 23.2454 10.9803L23.7182 11.085C26.5562 11.7139 28.7937 13.8957 29.4944 16.7175C30.0296 18.8731 30.0296 21.1269 29.4944 23.2825C28.7937 26.1043 26.5562 28.2861 23.7182 28.915L23.2454 29.0197C21.1077 29.4934 18.8923 29.4934 16.7546 29.0197L16.2818 28.915C13.4438 28.2861 11.2063 26.1043 10.5056 23.2826C9.97034 21.1269 9.97034 18.8731 10.5056 16.7174Z" stroke="#1B3ED7" stroke-width="1.5"/>
<path fill-rule="evenodd" clip-rule="evenodd" d="M20.0003 14.7917C20.3985 14.7917 20.7214 15.0958 20.7214 15.471V16.0268H20.8013C22.1424 16.0268 23.125 17.1252 23.125 18.3531C23.125 18.7283 22.8021 19.0324 22.4038 19.0324C22.0056 19.0324 21.6827 18.7283 21.6827 18.3531C21.6827 17.7618 21.2303 17.3855 20.8013 17.3855H20.7214V19.5242L21.6951 19.8578C22.5799 20.1609 23.125 20.9852 23.125 21.8582C23.125 22.9694 22.2345 23.9731 21.0069 23.9731H20.7214V24.529C20.7214 24.9042 20.3985 25.2083 20.0003 25.2083C19.602 25.2083 19.2791 24.9042 19.2791 24.529V23.9731H19.1987C17.8576 23.9731 16.875 22.8748 16.875 21.6469C16.875 21.2717 17.1979 20.9675 17.5962 20.9675C17.9944 20.9675 18.3173 21.2717 18.3173 21.6469C18.3173 22.2381 18.7697 22.6144 19.1987 22.6144H19.2791V20.4759L18.3049 20.1422C17.4201 19.8391 16.875 19.0148 16.875 18.1418C16.875 17.0306 17.7655 16.0268 18.9931 16.0268H19.2791V15.471C19.2791 15.0958 19.602 14.7917 20.0003 14.7917ZM19.2791 17.3855H18.9931C18.6777 17.3855 18.3173 17.6672 18.3173 18.1418C18.3173 18.5047 18.5417 18.7776 18.7978 18.8653L19.2791 19.0301V17.3855ZM20.7214 20.97V22.6144H21.0069C21.3223 22.6144 21.6827 22.3327 21.6827 21.8582C21.6827 21.4953 21.4583 21.2224 21.2022 21.1347L20.7214 20.97Z" fill="#1B3ED7"/>
</svg>
