<svg width="40" height="40" viewBox="0 0 40 40" fill="none" xmlns="http://www.w3.org/2000/svg">
<path d="M20 0.5C26.5898 0.5 31.4478 2.69561 34.6621 6.19629C37.8828 9.70398 39.5 14.5734 39.5 20C39.5 25.4221 37.8245 30.2929 34.5723 33.8027C31.3257 37.3063 26.4655 39.5 20 39.5C13.5345 39.5 8.67429 37.3063 5.42773 33.8027C2.17547 30.2929 0.5 25.4221 0.5 20C0.5 14.5734 2.11724 9.70398 5.33789 6.19629C8.55215 2.69561 13.4102 0.5 20 0.5Z" stroke="#F3F5FA"/>
<path d="M10 28.1377H13.5652L19.9783 16.942L26.4348 28.1377H30L19.9565 10.8333L10 28.1377Z" fill="#CF152D"/>
<path d="M19.9783 23.0072L17.0435 28.1159L22.9348 28.1377L19.9783 23.0072Z" fill="#CF152D"/>
</svg>
