<svg width="40" height="40" viewBox="0 0 40 40" fill="none" xmlns="http://www.w3.org/2000/svg">
<path d="M20 0.5C26.5898 0.5 31.4478 2.69561 34.6621 6.19629C37.8828 9.70398 39.5 14.5734 39.5 20C39.5 25.4221 37.8245 30.2929 34.5723 33.8027C31.3257 37.3063 26.4655 39.5 20 39.5C13.5345 39.5 8.67429 37.3063 5.42773 33.8027C2.17547 30.2929 0.5 25.4221 0.5 20C0.5 14.5734 2.11724 9.70398 5.33789 6.19629C8.55215 2.69561 13.4102 0.5 20 0.5Z" stroke="#F3F5FA"/>
<g clip-path="url(#clip0_5_6508)">
<path d="M20 30C25.5228 30 30 25.5228 30 20C30 14.4772 25.5228 10 20 10C14.4772 10 10 14.4772 10 20C10 25.5228 14.4772 30 20 30Z" fill="url(#paint0_linear_5_6508)"/>
<path fill-rule="evenodd" clip-rule="evenodd" d="M14.5266 19.8945C17.4418 18.6244 19.3857 17.787 20.3583 17.3825C23.1354 16.2274 23.7125 16.0267 24.0886 16.0201C24.1714 16.0186 24.3563 16.0391 24.4761 16.1364C24.5773 16.2184 24.6051 16.3293 24.6184 16.4072C24.6318 16.485 24.6484 16.6623 24.6352 16.8008C24.4847 18.3821 23.8335 22.2193 23.5022 23.9903C23.362 24.7397 23.086 24.991 22.8188 25.0156C22.2381 25.069 21.7971 24.6318 21.2347 24.2631C20.3545 23.6861 19.8573 23.327 19.003 22.764C18.0157 22.1134 18.6557 21.7558 19.2184 21.1714C19.3656 21.0184 21.9243 18.6911 21.9738 18.48C21.98 18.4536 21.9858 18.3552 21.9273 18.3032C21.8688 18.2513 21.7825 18.269 21.7202 18.2832C21.632 18.3032 20.226 19.2325 17.5022 21.0711C17.1031 21.3452 16.7416 21.4787 16.4177 21.4717C16.0607 21.464 15.3739 21.2698 14.8633 21.1039C14.237 20.9003 13.7393 20.7927 13.7826 20.4469C13.8052 20.2669 14.0532 20.0827 14.5266 19.8945Z" fill="white"/>
</g>
<defs>
<linearGradient id="paint0_linear_5_6508" x1="1010" y1="10" x2="1010" y2="1995.17" gradientUnits="userSpaceOnUse">
<stop stop-color="#2AABEE"/>
<stop offset="1" stop-color="#229ED9"/>
</linearGradient>
<clipPath id="clip0_5_6508">
<rect width="20" height="20" fill="white" transform="translate(10 10)"/>
</clipPath>
</defs>
</svg>
